<svg width="48" height="48" viewBox="0 0 48 48" fill="none" xmlns="http://www.w3.org/2000/svg">
<path fill-rule="evenodd" clip-rule="evenodd" d="M40.0805 40.0661C40.0805 41.7108 39.0755 45.0001 35.0553 45.0001H12.9447C8.92454 45.0001 7.91951 41.7108 7.91951 40.0661V31.185C6.41196 31.185 4.17138 30.4816 2.89435 28.2247C0.884288 24.6722 2.72685 21.4816 3.89938 20.3304L19.9799 4.54172C21.5879 2.96286 23 3.00008 24 3.00008C25 3.00008 26.4121 2.96286 28.0201 4.54172L44.1006 20.3304C45.2732 21.4816 47.1157 24.6722 45.1057 28.2247C43.8286 30.4816 41.588 31.185 40.0805 31.185V40.0661ZM24 27.0001C26.8 27.0001 27.8333 29.0001 28 30.0001V36.0001C27.8333 37.0001 26.8 39.0001 24 39.0001C21.2 39.0001 20.1667 37.0001 20 36.0001V30.0001C20.1667 29.0001 21.2 27.0001 24 27.0001Z" fill="#378ccd"/>
</svg>
