<svg width="48" height="48" viewBox="0 0 48 48" fill="none" xmlns="http://www.w3.org/2000/svg">
<path d="M24 43C30.6471 43 36.2984 39.583 39.6742 34.4105C37.0984 28.296 31.0478 24 24 24C16.8739 24 10.7673 28.3919 8.24127 34.6149C11.6558 39.6728 17.4408 43 24 43Z" fill="#378ccd"/>
<path fill-rule="evenodd" clip-rule="evenodd" d="M24 2C36.15 2 46 11.85 46 24C46 36.15 36.15 46 24 46C11.85 46 2 36.15 2 24C2 11.85 11.85 1.99999 24 2ZM43 24C43.4 13.51 34.49 5 24 5C13.51 5 5 13.51 5 24C5 34.49 13.51 43 24 43C34.49 43 42.5 34.49 43 24Z" fill="#378ccd"/>
<path d="M33 18C33 13.0263 28.9737 9 24 9C19.0263 9 15 13.0263 15 18C15 22.9737 19.0263 27 24 27C28.9737 27 33 22.9737 33 18Z" fill="#378ccd"/>
</svg>
